<svg xmlns="http://www.w3.org/2000/svg" version="1.1" xmlns:xlink="http://www.w3.org/1999/xlink" xmlns:svgjs="http://svgjs.dev/svgjs" width="128" height="128" viewBox="0 0 128 128"><g transform="matrix(0.8046875,0,0,0.8046875,12.438745489405044,1.1518606496710504)"><svg viewBox="0 0 77 95" data-background-color="#ffffff" preserveAspectRatio="xMidYMid meet" height="157" width="128" xmlns="http://www.w3.org/2000/svg" xmlns:xlink="http://www.w3.org/1999/xlink"><g id="tight-bounds" transform="matrix(1,0,0,1,0.04579220694962771,-0.24049999999999727)"><svg viewBox="0 0 76.90841558610073 95.481" height="95.481" width="76.90841558610073"><g><svg viewBox="0 0 76.90841558610073 95.481" height="95.481" width="76.90841558610073"><g><svg viewBox="0 0 76.90841558610073 95.481" height="95.481" width="76.90841558610073"><g id="textblocktransform"><svg viewBox="0 0 76.90841558610073 95.481" height="95.481" width="76.90841558610073" id="textblock"><g><svg viewBox="0 0 76.90841558610073 95.481" height="95.481" width="76.90841558610073"><g><svg viewBox="0 0 76.90841558610073 95.481" height="95.481" width="76.90841558610073"><g><svg xmlns="http://www.w3.org/2000/svg" xmlns:xlink="http://www.w3.org/1999/xlink" version="1.1" x="0" y="0" viewBox="19.600499696223977 12.259 60.799313105687446 75.4817164078112" enable-background="new 0 0 100 100" xml:space="preserve" height="95.481" width="76.90841558610073" class="icon-icon-0" data-fill-palette-color="accent" id="icon-0"><g fill="#8bd8bc" data-fill-palette-color="accent"><path d="M79.324 58.95L42.811 71.576c-0.676 9.822-10.365 15.626-11.567 15.588 2.418 0.992 4.53 2.181 42.378-10.235C84.071 73.502 79.324 58.95 79.324 58.95z" fill="#8bd8bc" data-fill-palette-color="accent"></path><g fill="#8bd8bc" data-fill-palette-color="accent"><path d="M77.97 14.884c-1.555-1.766-2.944-2.625-4.252-2.625-0.824 0-1.413 0.354-1.606 0.47-0.444 0.264-1.111 0.917-1.049 2.445l-4.564 3.739c-0.679-0.228-1.331-0.344-1.941-0.344-1.939 0-3.079 1.159-3.433 1.822-1.071 1.902-0.587 4.305 1.356 6.837L51.718 40.312l14.211-9.817c1.126 0.745 2.595 1.448 4.117 1.448 0.904 0 1.731-0.245 2.47-0.738 1.814-1.238 1.462-3.695 1.146-4.909l3.825-4.761c0.163 0.021 0.34 0.035 0.521 0.035 0.87 0 1.385-0.345 1.659-0.633C81.415 19.113 79.707 16.855 77.97 14.884z" fill="#8bd8bc" data-fill-palette-color="accent"></path><path d="M34.239 82.002c-8.63-1.46-10.697-16.815-6.144-45.646l31.137-6.921 1.749-2.128-0.231-0.349c-0.783-1.174-1.3-2.358-1.537-3.519l-0.114-0.564-36.63 8.142-0.365 2.128c-1.349 7.873-7.386 47.443 6.178 53.268 0.166 0.072 0.331 0.131 0.495 0.189l0.335 0.125 0.133-0.013c1.087-0.106 5.612-3.086 5.561-4.122l-0.117-0.515L34.239 82.002z" fill="#8bd8bc" data-fill-palette-color="accent"></path><path d="M67.98 32.879l-0.688-0.23-2.256 29.316 6.63-2.291 2.112-27.466-0.899 0.462C71.43 33.415 69.797 33.493 67.98 32.879z" fill="#8bd8bc" data-fill-palette-color="accent"></path></g></g></svg></g></svg></g></svg></g></svg></g></svg></g></svg></g><defs></defs></svg><rect width="76.90841558610073" height="95.481" fill="none" stroke="none" visibility="hidden"></rect></g></svg></g></svg>